<?xml version="1.0" standalone="no"?>
<!DOCTYPE svg PUBLIC "-//W3C//DTD SVG 20010904//EN"
 "http://www.w3.org/TR/2001/REC-SVG-20010904/DTD/svg10.dtd">
<svg version="1.0" xmlns="http://www.w3.org/2000/svg"
 width="97.000000pt" height="97.000000pt" viewBox="0 0 97.000000 97.000000"
 preserveAspectRatio="xMidYMid meet">

<g transform="translate(0.000000,97.000000) scale(0.100000,-0.100000)"
fill="#000000" stroke="none">
<path d="M375 821 c-16 -7 -25 -31 -44 -119 -13 -61 -27 -115 -30 -120 -3 -5
-37 -16 -76 -26 -225 -55 -229 -67 -27 -82 86 -6 92 -8 92 -28 0 -12 -5 -27
-11 -33 -12 -12 -8 -27 38 -155 20 -54 33 -73 66 -98 50 -37 76 -44 122 -36
45 9 121 80 130 121 4 17 13 44 20 60 19 45 28 107 16 114 -6 4 -8 16 -5 28 5
19 15 22 102 28 107 7 132 12 132 25 0 9 -36 21 -175 57 l-70 18 -30 119 c-24
94 -34 121 -50 127 -27 10 -175 10 -200 0z m257 -389 c5 -5 -20 -12 -59 -17
-83 -9 -99 -8 -191 1 -77 7 -84 19 -17 27 60 7 257 -1 267 -11z m-132 -97 c14
-43 44 -65 87 -65 37 0 40 -8 19 -49 -21 -40 -85 -81 -128 -81 -42 0 -94 33
-125 79 -31 45 -29 51 13 51 41 0 94 45 94 79 0 34 27 24 40 -14z"/>
</g>
</svg>
